# xmcd
#
# Track frame offsets: 
#        182
#        5802
#        18802
#        31952
#        45177
#        56107
#        69717
#        81835
#        92410
#        106375
#        117250
#        131940
#        142675
#        153190
#        163652
#        177725
#        189697
#        200612
#        215177
#        226860
#        239987
#        251310
#        260127
#
# Disc length: 3628 seconds
#
# Revision: 11
# Processed by: cddbd v1.5.2PL0 Copyright (c) Steve Scherf et al.
# Submitted via: ExactAudioCopyFreeDBPlugin 1.0
#
DISCID=4b0e2a17
DTITLE=Otis Redding - Otis!:  The Definitive Otis Redding [Rhino box s
DTITLE=et]
DYEAR=1993
DGENRE=Soul
TTITLE0=Announcement (from "Stay in School")
TTITLE1=Glory of Love
TTITLE2=I Love You More Than Words Can Say
TTITLE3=Let Me Come on Home
TTITLE4=Open the Door
TTITLE5=Hucklebuck
TTITLE6=The Happy Song (Dum-Dum)
TTITLE7=Hard to Handle
TTITLE8=Amen
TTITLE9=Gone Again
TTITLE10=I've Got Dreams to Remember
TTITLE11=I'm a Changed Man
TTITLE12=Direct Me
TTITLE13=Love Man
TTITLE14=Free Me
TTITLE15=Look at the Girl
TTITLE16=Pounds and Hundreds (Lbs and 100s)
TTITLE17=Tell the Truth
TTITLE18=Johnny's Heartbreak
TTITLE19=The Match Game
TTITLE20=A Little Time
TTITLE21=Slippin' and Slidin'
TTITLE22=(Sittin' On) The Dock of the Bay
EXTD=YEAR: 1993
EXTT0=
EXTT1=
EXTT2=
EXTT3=
EXTT4=
EXTT5=
EXTT6=
EXTT7=
EXTT8=
EXTT9=
EXTT10=
EXTT11=
EXTT12=
EXTT13=
EXTT14=
EXTT15=
EXTT16=
EXTT17=
EXTT18=
EXTT19=
EXTT20=
EXTT21=
EXTT22=
PLAYORDER=
